<svg xmlns="http://www.w3.org/2000/svg" viewBox="0 0 192.756 192.756"><path fill-rule="evenodd" clip-rule="evenodd" fill="none" d="M0 0h192.756v192.756H0V0z"/><path fill-rule="evenodd" clip-rule="evenodd" fill="#cf4037" d="M27.138 105.31V64.423h-12.86v40.887h12.86zM38.057 64.423h-5.702v14.923c0 2.062-.728 3.276-2.426 3.761l5.58 22.202h14.195S45.7 92.691 45.215 91.235c-1.092-3.518-3.64-6.551-7.038-6.673v-.849c6.552-.364 9.464-4.368 9.464-9.584.001-6.066-2.911-9.706-9.584-9.706zM87.557 63.332c-11.404 0-15.772 5.338-15.772 12.86v17.47c0 7.28 4.368 12.86 15.772 12.86 12.617 0 15.652-6.915 15.652-12.86v-6.915h-13.71v8.492c0 1.092-.971 1.82-2.062 1.82-1.213 0-1.941-.729-1.941-1.82V74.372c0-1.213.728-1.941 1.941-1.941 1.092 0 2.062.85 2.062 1.941v7.158h13.71v-5.338c0-6.188-3.035-12.86-15.652-12.86zm12.617 15.165h-7.642v-4.125c0-1.334-.606-2.427-1.456-3.276-.971-.849-2.305-1.456-3.64-1.456-2.912 0-4.975 1.941-4.975 4.731v20.867c0 1.335.486 2.427 1.335 3.275.971.971 2.184 1.457 3.64 1.457 1.334 0 2.669-.607 3.64-1.457.85-.849 1.456-2.062 1.456-3.275V89.78h7.642v3.882c0 6.673-4.124 10.07-12.617 10.07-4.731 0-8.25-1.214-10.312-3.397-1.698-1.577-2.426-3.882-2.426-6.673v-17.47c0-2.912.728-5.217 2.305-6.794 2.062-2.062 5.581-3.275 10.434-3.275 4.732 0 8.129 1.213 10.191 3.275 1.578 1.577 2.426 3.883 2.426 6.794v2.305h-.001zM66.811 105.31V64.423H52.738v40.886h14.073v.001zm-11.04-3.034v-34.82h8.007v34.82h-8.007zM123.105 69.641c-2.791 0-4.975 1.941-4.975 4.731v20.867c0 1.335.484 2.427 1.457 3.275.848.971 2.182 1.457 3.518 1.457 1.455 0 2.791-.607 3.639-1.457.971-.849 1.457-2.062 1.457-3.275V74.372c0-1.334-.486-2.427-1.457-3.276-.848-.849-2.183-1.455-3.639-1.455zm2.063 25.598c0 1.092-.971 1.82-2.062 1.82s-1.941-.729-1.941-1.82V74.372c0-1.213.85-1.941 1.941-1.941s2.062.85 2.062 1.941v20.867zM160.959 64.423V78.74h-3.762V64.423h-13.588v40.886h13.588V88.688h3.762v16.622h13.467V64.423h-13.467zm10.434 37.974h-7.402V85.776h-9.826v16.621h-7.521V67.335h7.521v14.438h9.826V67.335h7.402v35.062z"/><path d="M123.348 63.332c-11.525 0-16.014 5.338-16.014 12.86v17.47c0 7.28 4.488 12.86 16.014 12.86 12.738 0 15.65-6.915 15.65-12.86v-17.47c0-6.188-2.912-12.86-15.65-12.86zm12.617 30.33c0 6.673-4.125 10.07-12.617 10.07-4.975 0-8.492-1.214-10.555-3.397-1.578-1.577-2.428-3.882-2.428-6.673v-17.47c0-2.912.85-5.217 2.428-6.794 2.062-2.062 5.58-3.275 10.555-3.275 4.732 0 8.25 1.213 10.191 3.275 1.578 1.577 2.426 3.883 2.426 6.794v17.47z" fill-rule="evenodd" clip-rule="evenodd" fill="#cf4037"/></svg>
